name rise44.8762peak52.3436fall86.788.mot
datacolumns 19
datarows 33
range 12.55661600000000 12.60994900000000
endheader
time	ground_force1_vx	ground_force1_vy	ground_force1_vz	ground_force1_px	ground_force1_py	ground_force1_pz	ground_force2_vx	ground_force2_vy	ground_force2_vz	ground_force2_px	ground_force2_py	ground_force2_pz	ground_torque1_x	ground_torque1_y	ground_torque1_z	ground_torque2_x	ground_torque2_y	ground_torque2_z	
12.55661600000000	66.63407500000000	782.37332500000002	57.52942300000000	0.27950700000000	0.00000000000000	0.10919600000000	0.00000000000000	0.00000000000000	0.00000000000000	0.00000000000000	0.00000000000000	0.00000000000000	0.00000000000000	17.23443000000000	0.00000000000000	0.00000000000000	0.00000000000000	0.00000000000000	
12.55828200000000	66.01741699999999	784.83925899999997	57.54212000000000	0.27871500000000	0.00000000000000	0.10914200000000	0.00000000000000	0.00000000000000	0.00000000000000	0.00000000000000	0.00000000000000	0.00000000000000	0.00000000000000	17.23147400000000	0.00000000000000	0.00000000000000	0.00000000000000	0.00000000000000	
12.55995600000000	65.39547300000000	787.15202499999998	57.55434300000000	0.27792900000000	0.00000000000000	0.10909000000000	0.00000000000000	0.00000000000000	0.00000000000000	0.00000000000000	0.00000000000000	0.00000000000000	0.00000000000000	17.23026300000000	0.00000000000000	0.00000000000000	0.00000000000000	0.00000000000000	
12.56161500000000	64.76838300000000	789.31008599999996	57.56612400000000	0.27715000000000	0.00000000000000	0.10904000000000	0.00000000000000	0.00000000000000	0.00000000000000	0.00000000000000	0.00000000000000	0.00000000000000	0.00000000000000	17.23078900000000	0.00000000000000	0.00000000000000	0.00000000000000	0.00000000000000	
12.56328300000000	64.13624200000000	791.31210099999998	57.57742500000000	0.27637300000000	0.00000000000000	0.10899200000000	0.00000000000000	0.00000000000000	0.00000000000000	0.00000000000000	0.00000000000000	0.00000000000000	0.00000000000000	17.23301000000000	0.00000000000000	0.00000000000000	0.00000000000000	0.00000000000000	
12.56495000000000	63.49909500000000	793.15693799999997	57.58813900000000	0.27559900000000	0.00000000000000	0.10894500000000	0.00000000000000	0.00000000000000	0.00000000000000	0.00000000000000	0.00000000000000	0.00000000000000	0.00000000000000	17.23685100000000	0.00000000000000	0.00000000000000	0.00000000000000	0.00000000000000	
12.56661800000000	62.85694800000000	794.84368700000005	57.59809500000000	0.27482300000000	0.00000000000000	0.10890000000000	0.00000000000000	0.00000000000000	0.00000000000000	0.00000000000000	0.00000000000000	0.00000000000000	0.00000000000000	17.24220300000000	0.00000000000000	0.00000000000000	0.00000000000000	0.00000000000000	
12.56828400000000	62.20977400000000	796.37166700000000	57.60706500000000	0.27404600000000	0.00000000000000	0.10885700000000	0.00000000000000	0.00000000000000	0.00000000000000	0.00000000000000	0.00000000000000	0.00000000000000	0.00000000000000	17.24893300000000	0.00000000000000	0.00000000000000	0.00000000000000	0.00000000000000	
12.56994800000000	61.55751400000000	797.74043700000004	57.61476600000000	0.27326400000000	0.00000000000000	0.10881500000000	0.00000000000000	0.00000000000000	0.00000000000000	0.00000000000000	0.00000000000000	0.00000000000000	0.00000000000000	17.25687600000000	0.00000000000000	0.00000000000000	0.00000000000000	0.00000000000000	
12.57161800000000	60.90008600000000	798.94980299999997	57.62086800000000	0.27247600000000	0.00000000000000	0.10877600000000	0.00000000000000	0.00000000000000	0.00000000000000	0.00000000000000	0.00000000000000	0.00000000000000	0.00000000000000	17.26584700000000	0.00000000000000	0.00000000000000	0.00000000000000	0.00000000000000	
12.57328400000000	60.23738800000000	799.99982399999999	57.62499600000000	0.27167900000000	0.00000000000000	0.10873800000000	0.00000000000000	0.00000000000000	0.00000000000000	0.00000000000000	0.00000000000000	0.00000000000000	0.00000000000000	17.27563600000000	0.00000000000000	0.00000000000000	0.00000000000000	0.00000000000000	
12.57495500000000	59.56930500000000	800.89081899999996	57.62673900000000	0.27087300000000	0.00000000000000	0.10870200000000	0.00000000000000	0.00000000000000	0.00000000000000	0.00000000000000	0.00000000000000	0.00000000000000	0.00000000000000	17.28601600000000	0.00000000000000	0.00000000000000	0.00000000000000	0.00000000000000	
12.57661300000000	58.89571500000000	801.62337200000002	57.62565000000000	0.27005500000000	0.00000000000000	0.10866800000000	0.00000000000000	0.00000000000000	0.00000000000000	0.00000000000000	0.00000000000000	0.00000000000000	0.00000000000000	17.29674100000000	0.00000000000000	0.00000000000000	0.00000000000000	0.00000000000000	
12.57828300000000	58.21649100000000	802.19833200000005	57.62125900000000	0.26922400000000	0.00000000000000	0.10863600000000	0.00000000000000	0.00000000000000	0.00000000000000	0.00000000000000	0.00000000000000	0.00000000000000	0.00000000000000	17.30755300000000	0.00000000000000	0.00000000000000	0.00000000000000	0.00000000000000	
12.57994900000000	57.53151000000000	802.61682299999995	57.61307200000000	0.26837800000000	0.00000000000000	0.10860500000000	0.00000000000000	0.00000000000000	0.00000000000000	0.00000000000000	0.00000000000000	0.00000000000000	0.00000000000000	17.31818200000000	0.00000000000000	0.00000000000000	0.00000000000000	0.00000000000000	
12.58161500000000	56.84065400000000	802.88023499999997	57.60058100000000	0.26751500000000	0.00000000000000	0.10857700000000	0.00000000000000	0.00000000000000	0.00000000000000	0.00000000000000	0.00000000000000	0.00000000000000	0.00000000000000	17.32834900000000	0.00000000000000	0.00000000000000	0.00000000000000	0.00000000000000	
12.58328800000000	56.14381800000000	802.99023399999999	57.58326800000000	0.26663500000000	0.00000000000000	0.10855000000000	0.00000000000000	0.00000000000000	0.00000000000000	0.00000000000000	0.00000000000000	0.00000000000000	0.00000000000000	17.33776900000000	0.00000000000000	0.00000000000000	0.00000000000000	0.00000000000000	
12.58494900000000	55.44091300000000	802.94875400000001	57.56060800000000	0.26573600000000	0.00000000000000	0.10852400000000	0.00000000000000	0.00000000000000	0.00000000000000	0.00000000000000	0.00000000000000	0.00000000000000	0.00000000000000	17.34615200000000	0.00000000000000	0.00000000000000	0.00000000000000	0.00000000000000	
12.58662100000000	54.73187200000000	802.75800000000004	57.53207700000000	0.26481700000000	0.00000000000000	0.10850000000000	0.00000000000000	0.00000000000000	0.00000000000000	0.00000000000000	0.00000000000000	0.00000000000000	0.00000000000000	17.35321000000000	0.00000000000000	0.00000000000000	0.00000000000000	0.00000000000000	
12.58828300000000	54.01665000000000	802.42043799999999	57.49715900000000	0.26387700000000	0.00000000000000	0.10847800000000	0.00000000000000	0.00000000000000	0.00000000000000	0.00000000000000	0.00000000000000	0.00000000000000	0.00000000000000	17.35865400000000	0.00000000000000	0.00000000000000	0.00000000000000	0.00000000000000	
12.58995400000000	53.29523100000000	801.93880100000001	57.45534600000000	0.26291400000000	0.00000000000000	0.10845700000000	0.00000000000000	0.00000000000000	0.00000000000000	0.00000000000000	0.00000000000000	0.00000000000000	0.00000000000000	17.36219900000000	0.00000000000000	0.00000000000000	0.00000000000000	0.00000000000000	
12.59162000000000	52.56763200000000	801.31607199999996	57.40614500000000	0.26192900000000	0.00000000000000	0.10843800000000	0.00000000000000	0.00000000000000	0.00000000000000	0.00000000000000	0.00000000000000	0.00000000000000	0.00000000000000	17.36356800000000	0.00000000000000	0.00000000000000	0.00000000000000	0.00000000000000	
12.59328200000000	51.83390100000000	800.55548599999997	57.34908400000000	0.26092000000000	0.00000000000000	0.10842000000000	0.00000000000000	0.00000000000000	0.00000000000000	0.00000000000000	0.00000000000000	0.00000000000000	0.00000000000000	17.36249200000000	0.00000000000000	0.00000000000000	0.00000000000000	0.00000000000000	
12.59494800000000	51.09412600000000	799.66052200000001	57.28371300000000	0.25988800000000	0.00000000000000	0.10840300000000	0.00000000000000	0.00000000000000	0.00000000000000	0.00000000000000	0.00000000000000	0.00000000000000	0.00000000000000	17.35871000000000	0.00000000000000	0.00000000000000	0.00000000000000	0.00000000000000	
12.59661900000000	50.34843200000000	798.63488800000005	57.20961100000000	0.25883100000000	0.00000000000000	0.10838800000000	0.00000000000000	0.00000000000000	0.00000000000000	0.00000000000000	0.00000000000000	0.00000000000000	0.00000000000000	17.35197700000000	0.00000000000000	0.00000000000000	0.00000000000000	0.00000000000000	
12.59828400000000	49.59698500000000	797.48252200000002	57.12638700000000	0.25775000000000	0.00000000000000	0.10837300000000	0.00000000000000	0.00000000000000	0.00000000000000	0.00000000000000	0.00000000000000	0.00000000000000	0.00000000000000	17.34205800000000	0.00000000000000	0.00000000000000	0.00000000000000	0.00000000000000	
12.59994600000000	48.83999300000000	796.20757300000002	57.03368400000000	0.25664400000000	0.00000000000000	0.10836000000000	0.00000000000000	0.00000000000000	0.00000000000000	0.00000000000000	0.00000000000000	0.00000000000000	0.00000000000000	17.32873800000000	0.00000000000000	0.00000000000000	0.00000000000000	0.00000000000000	
12.60161700000000	48.07770700000000	794.81439499999999	56.93118500000000	0.25551300000000	0.00000000000000	0.10834800000000	0.00000000000000	0.00000000000000	0.00000000000000	0.00000000000000	0.00000000000000	0.00000000000000	0.00000000000000	17.31181600000000	0.00000000000000	0.00000000000000	0.00000000000000	0.00000000000000	
12.60328300000000	47.31042300000000	793.30753600000003	56.81860900000000	0.25435800000000	0.00000000000000	0.10833600000000	0.00000000000000	0.00000000000000	0.00000000000000	0.00000000000000	0.00000000000000	0.00000000000000	0.00000000000000	17.29111000000000	0.00000000000000	0.00000000000000	0.00000000000000	0.00000000000000	
12.60495400000000	46.53847800000000	791.69172400000002	56.69571800000000	0.25318000000000	0.00000000000000	0.10832500000000	0.00000000000000	0.00000000000000	0.00000000000000	0.00000000000000	0.00000000000000	0.00000000000000	0.00000000000000	17.26645800000000	0.00000000000000	0.00000000000000	0.00000000000000	0.00000000000000	
12.60661800000000	45.76225600000000	789.97185500000001	56.56231900000000	0.25197700000000	0.00000000000000	0.10831400000000	0.00000000000000	0.00000000000000	0.00000000000000	0.00000000000000	0.00000000000000	0.00000000000000	0.00000000000000	17.23771700000000	0.00000000000000	0.00000000000000	0.00000000000000	0.00000000000000	
12.60828700000000	44.98218100000000	788.15297999999996	56.41826200000000	0.25075200000000	0.00000000000000	0.10830400000000	0.00000000000000	0.00000000000000	0.00000000000000	0.00000000000000	0.00000000000000	0.00000000000000	0.00000000000000	17.20476600000000	0.00000000000000	0.00000000000000	0.00000000000000	0.00000000000000	
12.60994900000000	44.19872100000000	786.24029099999996	56.26344500000000	0.24950500000000	0.00000000000000	0.10829400000000	0.00000000000000	0.00000000000000	0.00000000000000	0.00000000000000	0.00000000000000	0.00000000000000	0.00000000000000	17.16750400000000	0.00000000000000	0.00000000000000	0.00000000000000	0.00000000000000	
